<svg xmlns="http://www.w3.org/2000/svg" viewBox="0 0 520 520">
  <defs>
    <linearGradient id="bg" x1="0" x2="1" y1="0" y2="1">
      <stop offset="0" stop-color="#f5f2f7" />
      <stop offset="1" stop-color="#d2ccdc" />
    </linearGradient>
    <linearGradient id="accent" x1="0" x2="1" y1="0" y2="0">
      <stop offset="0" stop-color="#7e6a92" />
      <stop offset="1" stop-color="#5f4a7a" />
    </linearGradient>
  </defs>
  <rect width="520" height="520" rx="36" fill="url(#bg)" />
  <rect x="56" y="70" width="408" height="320" rx="22" fill="#ffffff" opacity="0.75" />
  <g stroke="url(#accent)" stroke-width="6" fill="none" opacity="0.95">
    <path d="M90 300 C130 200, 180 200, 220 300" />
    <path d="M150 300 C190 170, 240 170, 280 300" />
    <path d="M210 300 C250 150, 300 150, 340 300" />
    <path d="M270 300 C310 170, 360 170, 400 300" />
  </g>
  <g stroke="#b7afc8" stroke-width="2" opacity="0.7">
    <line x1="90" y1="130" x2="430" y2="130" />
    <line x1="90" y1="210" x2="430" y2="210" />
    <line x1="90" y1="290" x2="430" y2="290" />
  </g>
  <rect x="110" y="370" width="300" height="18" rx="9" fill="#c9c1d6" opacity="0.6" />
  <rect x="110" y="400" width="240" height="14" rx="7" fill="#c9c1d6" opacity="0.5" />
</svg>
